<?xml version="1.0" encoding="UTF-8"?>
<svg width="38px" height="38px" viewBox="0 0 38 38" version="1.1" xmlns="http://www.w3.org/2000/svg" xmlns:xlink="http://www.w3.org/1999/xlink">
    <title>icon/dianziqianzhang_38</title>
    <g id="页面-1" stroke="none" stroke-width="1" fill="none" fill-rule="evenodd">
        <g id="2-工作台首页" transform="translate(-25.000000, -900.000000)">
            <g id="编组-7" transform="translate(20.000000, 900.000000)">
                <g id="icon/dianziqianzhang_38" transform="translate(5.000000, 0.000000)">
                    <rect id="矩形" fill="#D0332F" x="1" y="1" width="36" height="36" rx="8"></rect>
                    <path d="M28.7571003,15.8631579 L25.8827834,10.6736842 C25.6095593,10.2736842 25.139614,10 24.6259528,10 L13.2926194,10 C12.7789582,10 12.3199418,10.2736842 12.0357888,10.6736842 L9.1614719,15.8631579 C8.93196371,16.2631579 8.93196371,16.8 9.25983256,17.1578947 L17.8062806,27.4105263 C18.3199418,28.0315789 19.2598326,28.1263158 19.8937123,27.6315789 C19.981144,27.5684211 20.0576468,27.4947368 20.1232205,27.4105263 L28.6696686,17.1578947 C28.9866085,16.8 28.9866085,16.2631579 28.7571003,15.8631579 Z M23.5986304,15.8105263 L14.3090129,15.8105263 C13.7953517,15.8105263 13.3800511,15.4105263 13.3800511,14.9157895 C13.3800511,14.4210526 13.7953517,14.0210526 14.3090129,14.0210526 L23.5986304,14.0210526 C24.1122916,14.0210526 24.5275921,14.4210526 24.5275921,14.9157895 C24.5275921,15.4105263 24.1122916,15.8105263 23.5986304,15.8105263 Z" id="形状" fill="#FFFFFF" fill-rule="nonzero"></path>
                </g>
            </g>
        </g>
    </g>
</svg>