<?xml version="1.0" encoding="UTF-8"?>
<svg width="38px" height="38px" viewBox="0 0 38 38" version="1.1" xmlns="http://www.w3.org/2000/svg" xmlns:xlink="http://www.w3.org/1999/xlink">
    <title>icon/xinchouchaxun_38</title>
    <g id="页面-1" stroke="none" stroke-width="1" fill="none" fill-rule="evenodd">
        <g id="2-工作台首页" transform="translate(-216.000000, -198.000000)">
            <g id="icon/xinchouchaxun_38" transform="translate(216.000000, 198.000000)">
                <rect id="矩形" fill="#FFA64F" x="1" y="1" width="36.0000003" height="36" rx="8"></rect>
                <path d="M19,9.00000026 C13.4771524,9.00000026 9,13.477153 9,19.0000003 C9,24.5228478 13.4771524,29.0000003 19,29.0000003 C24.5228473,29.0000003 29,24.5228478 29,19.0000003 C29.0006028,16.3476507 27.947228,13.8037612 26.0717335,11.9282667 C24.196239,10.0527722 21.6523495,8.9993975 19,9.00000026 L19,9.00000026 Z M19.8072726,24.4027276 L19.8072726,25.2918185 C19.8073934,25.5319552 19.7120218,25.7622846 19.5421769,25.9320443 C19.3723319,26.101804 19.1419547,26.1970599 18.9018181,26.1968189 L18.8854544,26.1968189 C18.3849706,26.1968189 17.9786157,25.7922972 17.9763635,25.2918185 L17.9763635,24.5036367 C17.3402291,24.4511099 16.7177675,24.2901523 16.135909,24.0277276 C15.8101318,23.8860475 15.5863597,23.5793669 15.5508448,23.2258946 C15.5153299,22.8724222 15.6736179,22.5273544 15.9646974,22.323696 C16.2557769,22.1200376 16.6341945,22.0895908 16.9540908,22.2440913 C17.4768295,22.4819986 18.0438645,22.606991 18.6181817,22.6109094 C19.5645453,22.6109094 20.1977271,22.1159094 20.1977271,21.3795458 C20.1977271,20.8872731 20.001818,20.3490913 18.5690908,19.7700004 C17.0236363,19.1640913 15.5895454,18.3504549 15.5895454,16.5372731 C15.5917617,15.0669574 16.64593,13.8089603 18.0931817,13.5495459 L18.0931817,12.7095459 C18.0691445,12.3702464 18.2365344,12.0459134 18.5270218,11.8689416 C18.8175093,11.6919698 19.1824905,11.6919698 19.4729779,11.8689416 C19.7634653,12.0459134 19.9308552,12.3702464 19.906818,12.7095459 L19.906818,13.4368186 C20.3906386,13.4787618 20.8655307,13.5924295 21.3159089,13.7740914 C21.7439597,13.9537084 21.9859033,14.4103184 21.8941426,14.8653675 C21.8023819,15.3204166 21.4023902,15.6475803 20.9381817,15.6472732 C20.80926,15.6464287 20.681736,15.6204916 20.5627271,15.5709095 C20.118208,15.3936166 19.6435601,15.3040896 19.1649999,15.3072732 C18.1590908,15.3072732 17.8013635,15.8400004 17.8013635,16.340455 C17.8013635,16.8786368 18.0654544,17.2268186 19.6149999,17.8681822 C20.9254544,18.401364 22.4290907,19.2709095 22.4290907,21.2640913 C22.4105971,22.8004101 21.314186,24.1118484 19.8054544,24.402273 L19.8072726,24.4027276 Z" id="USD" fill="#FFFFFF" fill-rule="nonzero"></path>
            </g>
        </g>
    </g>
</svg>