<?xml version="1.0" encoding="UTF-8"?>
<svg width="38px" height="38px" viewBox="0 0 38 38" version="1.1" xmlns="http://www.w3.org/2000/svg" xmlns:xlink="http://www.w3.org/1999/xlink">
    <title>icon/APPanzhuang_38</title>
    <g id="页面-1" stroke="none" stroke-width="1" fill="none" fill-rule="evenodd">
        <g id="2-工作台首页" transform="translate(-122.000000, -1742.000000)">
            <g id="icon/APPanzhuang_38" transform="translate(122.000000, 1742.000000)">
                <rect id="矩形" fill="#85C692" x="1" y="1" width="36" height="36" rx="8"></rect>
                <path d="M19,29 C13.4796875,28.99375 9.00703125,24.5203125 9,19 C9.00703125,13.4796875 13.4796875,9.00625 19,9 C24.5203125,9.00566406 28.9943359,13.4796875 29,19 C28.9943359,24.5203125 24.5203125,28.9943359 19,29 Z M20.0351562,15.8568359 C19.7479745,16.1151859 19.5554683,16.4621783 19.4882812,16.8425781 C19.3925389,17.3713358 19.4974934,17.9167926 19.7826172,18.3722656 L22.5142578,23.1476562 C22.6144366,23.3189124 22.7785622,23.4433415 22.9705078,23.4935547 C23.0392147,23.5144026 23.1106217,23.525 23.1824219,23.525 C23.3079201,23.525 23.4306548,23.4881435 23.5353516,23.4189453 C23.701858,23.3134992 23.8251145,23.1519287 23.8828125,22.9634766 C23.942503,22.7696743 23.9234884,22.560163 23.8298828,22.3802734 L23.0974609,21.1427734 L24.1548828,21.1427734 C24.3597254,21.1478075 24.5577467,21.0690081 24.703125,20.9246094 C24.9950101,20.6319532 24.9950101,20.1582811 24.703125,19.865625 C24.5583215,19.7203306 24.3599269,19.641312 24.1548828,19.6472656 L22.2240234,19.6472656 L20.0365234,15.8554688 L20.0351562,15.8568359 Z M15.0546875,21.4037109 C14.9014767,21.4052148 14.7492745,21.4286963 14.6027344,21.4734375 L14.0585938,22.3824219 C13.9613025,22.5602348 13.9343933,22.768119 13.9832031,22.9648438 C14.0305298,23.1584346 14.1564609,23.3235112 14.3306641,23.4203125 C14.4985608,23.5279247 14.7056289,23.5552666 14.8957031,23.4949219 C15.0876651,23.4351049 15.2544167,23.3134064 15.3699219,23.1488281 L16.0619141,21.9072266 C15.822017,21.5925854 15.4503316,21.4062742 15.0546875,21.4023438 L15.0546875,21.4037109 Z M13.7683594,19.6494141 C13.5643405,19.642101 13.3667466,19.7214223 13.2244141,19.8677734 C12.9322288,20.1602291 12.9322288,20.6341068 13.2244141,20.9265625 C13.3682336,21.0706797 13.5648108,21.1495929 13.7683594,21.1449219 L20.5136719,21.1449219 C20.6853204,20.8370513 20.6783843,20.4607115 20.4955078,20.159375 C20.345714,19.8435265 20.0246989,19.6448029 19.6751953,19.6515625 L17.3775391,19.6515625 L20.5486328,14.1464844 C20.6682955,13.9754058 20.7022464,13.7586536 20.640625,13.5591797 C20.5835253,13.370866 20.4608006,13.2092657 20.2947266,13.1037109 C20.1896882,13.0367645 20.0677228,13.0011719 19.9431641,13.0011719 C19.8704614,13.0017679 19.7981801,13.0122815 19.7283203,13.0324219 C19.5370539,13.082813 19.3741031,13.2080352 19.2761719,13.3798828 L18.9470703,13.9630859 L18.6205078,13.3798828 C18.5213416,13.2074169 18.3568806,13.0821702 18.1642578,13.0324219 C18.0949902,13.0120145 18.0231871,13.001494 17.9509766,13.0011719 C17.8259233,13.0011719 17.7034463,13.0367179 17.5978516,13.1037109 C17.4317775,13.2092657 17.3090528,13.370866 17.2519531,13.5591797 C17.1932225,13.7588526 17.226974,13.9743324 17.3439453,14.1464844 L18.0722656,15.4578125 L15.6685547,19.6507812 L13.7683594,19.6494141 Z" id="形状" fill="#FFFFFF" fill-rule="nonzero"></path>
            </g>
        </g>
    </g>
</svg>