<?xml version="1.0" encoding="UTF-8"?>
<svg width="38px" height="38px" viewBox="0 0 38 38" version="1.1" xmlns="http://www.w3.org/2000/svg" xmlns:xlink="http://www.w3.org/1999/xlink">
    <title>icon/ITgongdan_38</title>
    <g id="页面-1" stroke="none" stroke-width="1" fill="none" fill-rule="evenodd">
        <g id="2-工作台首页" transform="translate(-26.000000, -1538.000000)">
            <g id="icon/ITgongdan_38" transform="translate(26.000000, 1538.000000)">
                <rect id="矩形" fill="#FFA64F" x="1" y="1" width="36" height="36" rx="8"></rect>
                <path d="M23.2342405,27.7120078 C23.4965941,27.7120078 23.7092737,27.9834275 23.7092737,28.3182407 C23.7092737,28.6530538 23.4965941,28.9244735 23.2342405,28.9244735 L23.2342405,28.9244735 L14.6836431,28.9244735 C14.4212895,28.9244735 14.2086099,28.6530538 14.2086099,28.3182407 C14.2086099,27.9834275 14.4212895,27.7120078 14.6836431,27.7120078 L14.6836431,27.7120078 Z M27,9 C28.1045695,9 29,9.8954305 29,11 L29,24.3333333 C29,25.4379028 28.1045695,26.3333333 27,26.3333333 L11,26.3333333 C9.8954305,26.3333333 9,25.4379028 9,24.3333333 L9,11 C9,9.8954305 9.8954305,9 11,9 L27,9 Z M16.4254315,14.5769632 C16.1630779,14.5769632 15.9503983,14.8483828 15.9503983,15.183196 L15.9503983,15.183196 L15.9503983,22.45799 C15.9503983,22.7928031 16.1630779,23.0642228 16.4254315,23.0642228 C16.687785,23.0642228 16.9004646,22.7928031 16.9004646,22.45799 L16.9004646,22.45799 L16.9004646,15.183196 C16.9004646,14.8483828 16.687785,14.5769632 16.4254315,14.5769632 Z M23.0758961,14.5769631 L18.3255642,14.5769631 C18.0632106,14.5769631 17.850531,14.8483828 17.850531,15.183196 C17.850531,15.5180091 18.0632106,15.7894288 18.3255642,15.7894288 L18.3255642,15.7894288 L20.225697,15.7894288 L20.225697,22.45799 C20.225697,22.7928031 20.4383766,23.0642228 20.7007301,23.0642228 C20.9630837,23.0642228 21.1757633,22.7928031 21.1757633,22.45799 L21.1757633,22.45799 L21.1757633,15.7894288 L23.0758961,15.7894288 C23.3382497,15.7894288 23.5509293,15.5180091 23.5509293,15.183196 C23.5509293,14.8483828 23.3382497,14.5769631 23.0758961,14.5769631 L23.0758961,14.5769631 Z" id="形状" fill="#FFFFFF" fill-rule="nonzero"></path>
            </g>
        </g>
    </g>
</svg>