<?xml version="1.0" encoding="UTF-8"?>
<svg width="38px" height="38px" viewBox="0 0 38 38" version="1.1" xmlns="http://www.w3.org/2000/svg" xmlns:xlink="http://www.w3.org/1999/xlink">
    <title>icon/yidongshipinhuiyi_38</title>
    <g id="页面-1" stroke="none" stroke-width="1" fill="none" fill-rule="evenodd">
        <g id="2-工作台首页" transform="translate(-217.000000, -1226.000000)">
            <g id="icon/yidongshipinhuiyi_38" transform="translate(217.000000, 1226.000000)">
                <rect id="矩形" fill="#34BEEA" x="1" y="1" width="36" height="36" rx="8"></rect>
                <path d="M18.9525285,14.6953464 C18.0337555,14.6953464 17.1679886,15.0652886 16.5186634,15.738121 C15.8671297,16.4109534 15.5093383,17.3034389 15.5093383,18.2537279 C15.5093383,19.2040169 15.8671297,20.0965025 16.5186634,20.7693349 C17.1679886,21.4421672 18.0337555,21.8121094 18.9525285,21.8121094 C19.8713015,21.8121094 20.7370683,21.4421672 21.3863935,20.7693349 C22.0379272,20.0965025 22.3957187,19.2040169 22.3957187,18.2537279 C22.3957187,17.3034389 22.0379272,16.4109534 21.3863935,15.738121 C20.7348598,15.0629765 19.8690929,14.6953464 18.9525285,14.6953464 Z M21.0065162,18.471069 C20.9115469,19.4699129 20.1297064,20.2791614 19.1623444,20.3762713 C17.8570683,20.5103753 16.7660254,19.3843638 16.8963322,18.0340747 C16.9913015,17.0352308 17.773142,16.2259823 18.7405039,16.1288724 C20.04578,15.9947684 21.136823,17.1207799 21.0065162,18.471069 L21.0065162,18.471069 Z M27.9039395,18.2537279 C27.9039395,12.6121094 23.0229579,8.15199382 17.3888475,9.13696491 C13.9059027,9.7450574 10.5908107,13.2803175 10.0938782,16.8965025 C9.49976774,21.2063291 11.7856573,25.0491036 15.2487248,26.6814736 C13.7247984,27.1600863 12.3201358,27.9323406 11.1009947,28.9288724 L26.8018536,28.9288724 C25.5805039,27.9323406 24.1780499,27.1600863 22.6541236,26.6791614 C25.7505653,25.222514 27.9039395,21.9993927 27.9039395,18.2537279 Z M19.202099,23.2294505 C16.3419763,23.3797395 13.9942463,20.9496817 14.1378045,17.9947684 C14.2614855,15.4629765 16.2514242,13.4074851 18.6985407,13.2780054 C21.5586634,13.1277164 23.9063935,15.5577742 23.7628352,18.5126875 C23.6391542,21.0444794 21.6514242,23.0999707 19.202099,23.2294505 Z" id="形状" fill="#FFFFFF" fill-rule="nonzero"></path>
            </g>
        </g>
    </g>
</svg>